# xmcd
#
# Track frame offsets:
#	150
#	15761
#	29466
#	40687
#	54249
#	66357
#	78761
#	91514
#	107591
#	119115
#
# Disc length: 1765 seconds
#
# Revision: 1
# Processed by: cddbd v1.5.2PL0 Copyright (c) Steve Scherf et al.
# Submitted via: audiograbber 1.83.01
#
DISCID=6b06e30a
DTITLE=Various Artist - 30 Country Hits of the 1970s [CD1]
DYEAR=2006
DGENRE=Country
TTITLE0=Willie Nelson - Mamas Don't Let Your Babies Grow Up To Be Cowboys
TTITLE1=George Jones and Tammy Wynetter - Golden Ring
TTITLE2=Conway Twitty - Hello Darlin'
TTITLE3=Glen Campbell - Rhinestone Cowboy
TTITLE4=Johnny Paycheck - Take This Job and Shove It
TTITLE5=Merle Haggard - If We Make It Through December
TTITLE6=Charlie Rich - The Most Beautiful Girl
TTITLE7=Ray Price - She's Got To Be A Saint
TTITLE8=Freddy Fender - Before The NExt Teardrop Falls
TTITLE9=Lynn Anderson - Rose Garden
EXTD=Disc 1 of 3
EXTT0=
EXTT1=
EXTT2=
EXTT3=
EXTT4=
EXTT5=
EXTT6=
EXTT7=
EXTT8=
EXTT9=
PLAYORDER=
